<svg height="489pt" viewBox="-24 0 489 489.81192" width="489pt" xmlns="http://www.w3.org/2000/svg"><path d="m416.394531 138.535156-47.527343 47.53125-12.472657-60zm0 0" fill="#e48e66"/><path d="m362.40625 319.425781-12.808594 33.199219-19.8125-.578125c-6.292968 9.441406-14.175781 17.71875-23.300781 24.460937l1.453125 19.808594-32.621094 14.269532-13.679687-14.269532c-11.152344 2.039063-22.550781 2.332032-33.789063.871094l-12.820312 14.859375-33.203125-12.820313.582031-19.800781c-8.550781-5.707031-16.15625-12.71875-22.539062-20.777343h-.339844v-49.339844l19-21.222656c-.082032 1.3125-.121094 2.632812-.121094 3.960937 0 35.347656 28.652344 64 64 64s64-28.652344 64-64-28.652344-64-64-64c-3.671875 0-7.339844.3125-10.960938.929687l24.921876-27.839843v-14.238281h.609374l12.808594-14.851563 33.210938 12.808594-.589844 19.8125c9.441406 6.292969 17.71875 14.175781 24.46875 23.300781l19.8125-1.460938 14.269531 32.617188-14.269531 13.691406c2.035156 11.152344 2.332031 22.550782.867188 33.789063zm0 0" fill="#6fe3ff"/><path d="m256.367188 186.898438v14.238281h-249.960938v-39.199219h249.960938zm0 0" fill="#e48e66"/><path d="m256.367188 201.136719-24.921876 27.839843h-.007812l-52.910156 59.109376-19 21.222656v69.027344l-56.28125 43.109374v-112.136718l-96.839844-108.171875zm0 0" fill="#f8ec7d"/><path d="m169.585938 62.710938 26.535156-26.527344 26.527344 26.535156-26.535157 26.527344zm0 0" fill="#6fe3ff"/><path d="m221.066406 130.085938c8.648438 8.652343 8.648438 22.679687 0 31.332031v.519531h-31.332031v-.519531c-8.566406-8.667969-8.527344-22.625.089844-31.242188 8.617187-8.621093 22.578125-8.660156 31.242187-.089843zm0 0" fill="#6fe3ff"/><path d="m152.707031 107.15625-40.28125 34.550781-3.238281-44.53125zm0 0" fill="#6fe3ff"/><path d="m151.464844 445.996094c8.648437 8.652344 8.648437 22.675781-.003906 31.324218-8.648438 8.648438-22.671876 8.648438-31.320313 0-8.652344-8.648437-8.652344-22.671874-.003906-31.324218 8.648437-8.65625 22.679687-8.65625 31.328125 0zm0 0" fill="#6fe3ff"/><path d="m153.539062 28.195312c0 12.234376-9.914062 22.152344-22.148437 22.152344-12.230469 0-22.148437-9.917968-22.148437-22.152344 0-12.230468 9.917968-22.148437 22.148437-22.148437 12.234375 0 22.148437 9.917969 22.148437 22.148437zm0 0" fill="#6fe3ff"/><path d="m51.464844 85.996094c8.648437 8.652344 8.648437 22.675781-.003906 31.324218-8.648438 8.648438-22.671876 8.648438-31.320313 0-8.652344-8.648437-8.652344-22.671874-.003906-31.324218 8.648437-8.65625 22.679687-8.65625 31.328125 0zm0 0" fill="#6fe3ff"/><g fill="#63316d"><path d="m.785156 203.21875c.011719.03125.023438.066406.035156.097656.121094.304688.261719.59375.429688.875.023438.039063.046875.078125.070312.117188.171876.269531.363282.527344.574219.769531.015625.019531.023438.039063.039063.058594l95.3125 106.464843v109.84375c0 2.285157 1.296875 4.371094 3.34375 5.382813 2.046875 1.007813 4.492187.769531 6.304687-.617187l56.28125-43.109376c1.480469-1.136718 2.351563-2.898437 2.351563-4.765624v-4.699219c3.390625 3.195312 6.996094 6.160156 10.785156 8.871093l-.484375 16.539063c-.074219 2.542969 1.464844 4.855469 3.835937 5.773437l33.199219 12.820313c2.363281.914063 5.046875.242187 6.699219-1.675781l10.746094-12.457032c9.722656.988282 19.53125.738282 29.1875-.75l11.484375 11.976563c1.742187 1.816406 4.429687 2.355469 6.734375 1.347656l32.621094-14.269531c2.332031-1.019531 3.765624-3.398438 3.578124-5.9375l-1.214843-16.574219c7.691406-6.066406 14.480469-13.191406 20.167969-21.164062l16.546874.484375c2.546876.082031 4.867188-1.457032 5.773438-3.835938l12.808594-33.203125c.914062-2.363281.242187-5.042969-1.675782-6.699219l-12.445312-10.742187c.988281-9.722656.738281-19.53125-.75-29.191406l11.980469-11.492188c1.816406-1.742187 2.351562-4.429687 1.34375-6.734375l-14.269531-32.621094c-1.015626-2.335937-3.398438-3.773437-5.941407-3.578124l-16.574219 1.21875c-6.070312-7.683594-13.195312-14.472657-21.167968-20.160157l.492187-16.546875c.074219-2.546875-1.464843-4.859375-3.839843-5.777344l-33.207032-12.808593c-2.367187-.914063-5.046875-.242188-6.703125 1.675781l-2.875 3.335938v-9.523438c0-3.3125-2.6875-6-6-6h-24.726562c3.363281-8.660156 2.238281-18.421875-3.007813-26.089844-5.246094-7.667968-13.9375-12.253906-23.226562-12.253906-9.289063 0-17.980469 4.585938-23.230469 12.253906-5.246094 7.667969-6.371094 17.429688-3.007813 26.089844h-172.757812c-3.3125 0-6 2.6875-6 6v39.199219c0 .347656.03125.691406.09375 1.03125.007812.03125.007812.0625.015625.089843.0625.328126.152344.648438.269531.960938zm152.742188 172.15625-44.28125 33.917969v-99.984375c0-1.476563-.546875-2.902344-1.53125-4l-87.890625-98.171875h223.117187l-15.773437 17.621093c-.066407.070313-.136719.144532-.199219.21875l-71.910156 80.328126c-.984375 1.101562-1.527344 2.523437-1.527344 4zm30.925781-84.917969 50.007813-55.863281c2.632812-.359375 5.289062-.542969 7.945312-.546875 32.03125 0 58 25.96875 58 58s-25.96875 58-58 58-58-25.96875-58-58c0-.53125.035156-1.058594.046875-1.589844zm87.117187-111.292969 25.296876 9.761719-.460938 15.5625c-.0625 2.070313.949219 4.023438 2.667969 5.171875 8.871093 5.90625 16.644531 13.308594 22.976562 21.875 1.21875 1.660156 3.210938 2.574219 5.265625 2.414063l15.570313-1.144531 10.890625 24.890624-11.246094 10.792969c-1.453125 1.394531-2.109375 3.425781-1.746094 5.410157 1.925782 10.535156 2.203125 21.3125.820313 31.933593-.257813 2.003907.503906 4 2.03125 5.316407l11.652343 10.058593-9.761718 25.300781-15.566406-.453124c-2.066407-.0625-4.019532.949218-5.167969 2.667968-5.902344 8.867188-13.304688 16.636719-21.875 22.960938-1.65625 1.226562-2.566407 3.210937-2.417969 5.265625l1.140625 15.574219-24.894531 10.890624-10.777344-11.246093c-1.398438-1.457031-3.429688-2.113281-5.414062-1.75-10.539063 1.929687-21.3125 2.207031-31.9375.820312-2-.253906-3.996094.507813-5.3125 2.03125l-10.0625 11.65625-25.296876-9.769531.453126-15.554688c.0625-2.066406-.945313-4.019531-2.667969-5.164062-7.605469-5.085938-14.417969-11.269531-20.207031-18.355469v-44.480469l7.734374-8.644531c5.738282 36.378907 38.679688 62.089844 75.363282 58.820313 36.679687-3.273438 64.554687-34.40625 63.765625-71.226563-.789063-36.816406-29.972657-66.726562-66.761719-68.425781l15.207031-16.988281c.019531-.019531.027344-.039063.042969-.058594.210938-.238281.402344-.496094.574219-.769531l.070312-.117188c.164063-.277344.308594-.570312.429688-.871094.011719-.035156.023437-.070312.035156-.101562.117187-.3125.207031-.632812.269531-.957031.007813-.03125.007813-.0625.015625-.089844.0625-.339844.09375-.6875.09375-1.03125v-11.300781zm-77.589843-44.835937c6.078125-6.082031 15.859375-6.335937 22.242187-.574219 6.386719 5.757813 7.140625 15.511719 1.714844 22.183594h-25.074219c-5.207031-6.429688-4.722656-15.75 1.117188-21.609375zm56.386719 33.609375v27.199219h-237.960938v-27.199219zm0 0"/><path d="m151.300781 8.296875c-7.105469-7.140625-17.480469-9.941406-27.214843-7.34375-9.730469 2.59375-17.335938 10.195313-19.9375 19.925781-2.601563 9.730469.195312 20.109375 7.332031 27.21875 7.105469 7.140625 17.484375 9.941406 27.214843 7.34375 9.730469-2.597656 17.335938-10.195312 19.9375-19.925781 2.601563-9.730469-.195312-20.109375-7.332031-27.21875zm-8.488281 31.316406c-5.445312 5.441407-13.976562 6.28125-20.378906 2s-8.886719-12.484375-5.9375-19.597656c2.949218-7.113281 10.507812-11.152344 18.0625-9.652344 7.550781 1.503907 12.988281 8.132813 12.988281 15.832031.011719 4.289063-1.695313 8.398438-4.734375 11.421876zm0 0"/><path d="m15.894531 81.753906c-9.484375 9.496094-10.941406 24.371094-3.480469 35.527344 7.460938 11.15625 21.765626 15.488281 34.164063 10.347656s19.4375-18.324218 16.816406-31.488281c-2.625-13.164063-14.179687-22.640625-27.601562-22.640625-7.46875-.015625-14.632813 2.957031-19.898438 8.253906zm31.332031 31.320313c-6.308593 6.3125-16.539062 6.316406-22.851562.007812-6.3125-6.308593-6.3125-16.542969 0-22.851562 6.3125-6.308594 16.542969-6.304688 22.851562.007812 3.050782 3.015625 4.765626 7.128907 4.765626 11.417969s-1.714844 8.402344-4.765626 11.417969zm0 0"/><path d="m135.796875 433.5c-13.429687 0-24.992187 9.484375-27.617187 22.660156-2.621094 13.171875 4.425781 26.363282 16.832031 31.507813 12.410156 5.140625 26.722656.804687 34.1875-10.363281 7.464843-11.164063 6.003906-26.050782-3.492188-35.550782-5.265625-5.300781-12.4375-8.273437-19.910156-8.253906zm11.429687 39.574219c-6.308593 6.3125-16.539062 6.316406-22.851562.007812-6.3125-6.308593-6.3125-16.542969 0-22.851562 6.3125-6.308594 16.542969-6.304688 22.851562.007812 3.050782 3.015625 4.765626 7.128907 4.765626 11.417969s-1.714844 8.402344-4.765626 11.417969zm0 0"/><path d="m196.117188 30.175781c-1.59375 0-3.121094.632813-4.246094 1.757813l-26.527344 26.542968c-2.34375 2.339844-2.34375 6.140626 0 8.480469l26.527344 26.53125c2.34375 2.34375 6.144531 2.34375 8.488281 0l26.527344-26.53125c2.34375-2.339843 2.34375-6.140625 0-8.480469l-26.527344-26.542968c-1.125-1.125-2.652344-1.757813-4.242187-1.757813zm0 50.585938-18.046876-18.046875 18.046876-18.050782 18.042968 18.050782zm0 0"/><path d="m154.046875 101.308594-43.519531-9.980469c-1.855469-.425781-3.804688.054687-5.25 1.292969-1.445313 1.238281-2.214844 3.09375-2.078125 4.992187l3.242187 44.527344c.164063 2.261719 1.585938 4.234375 3.675782 5.105469 2.089843.871094 4.496093.488281 6.214843-.984375l40.28125-34.550781c1.714844-1.476563 2.457031-3.792969 1.914063-5.988282-.542969-2.199218-2.273438-3.90625-4.480469-4.410156zm-36.5 28.101562-1.789063-24.570312 24.015626 5.507812zm0 0"/><path d="m400.226562 163.191406 20.410157-20.410156c1.558593-1.558594 2.136719-3.847656 1.507812-5.960938-.632812-2.113281-2.371093-3.707031-4.53125-4.15625l-60-12.472656c-1.980469-.410156-4.035156.199219-5.464843 1.628906-1.429688 1.429688-2.046876 3.484376-1.632813 5.464844l12.46875 60c.449219 2.160156 2.046875 3.898438 4.15625 4.527344 2.113281.632812 4.402344.054688 5.960937-1.503906l18.628907-18.628906c27.753906 34.980468 41.25 79.164062 37.777343 123.679687-3.128906 40.8125-19.925781 79.214844-46.070312 105.363281-17.054688 17.050782-39.488281 30.285156-64.867188 38.265625-26.371093 8.277344-54.289062 10.417969-81.617187 6.25-3.253906-.464843-6.273437 1.777344-6.773437 5.023438-.503907 3.25 1.703124 6.296875 4.945312 6.835937 9.613281 1.480469 19.328125 2.222656 29.054688 2.21875 19.671874 0 39.226562-2.992187 58-8.878906 27.210937-8.5625 51.332031-22.816406 69.746093-41.230469 28.144531-28.140625 46.203125-69.296875 49.554688-112.929687 3.722656-47.699219-10.804688-95.035156-40.640625-132.4375-.1875-.230469-.394532-.449219-.613282-.648438zm-27.75 10.777344-8.347656-40.164062 40.167969 8.347656zm0 0"/></g></svg>