<?xml version="1.0" encoding="iso-8859-1"?>
<!-- Generator: Adobe Illustrator 19.0.0, SVG Export Plug-In . SVG Version: 6.00 Build 0)  -->
<svg version="1.1" id="Layer_1" xmlns="http://www.w3.org/2000/svg" xmlns:xlink="http://www.w3.org/1999/xlink" x="0px" y="0px"
	 viewBox="0 0 512 512" style="enable-background:new 0 0 512 512;" xml:space="preserve">
<g>
	<polygon style="fill:#BDC3C7;" points="406.069,105.931 300.138,105.931 300.138,0 	"/>
	<polygon style="fill:#CC66A1;" points="229.517,406.069 512,406.069 512,194.207 229.517,194.207 	"/>
	<polygon style="fill:#ECF0F1;" points="229.517,406.069 229.517,194.207 406.069,194.207 406.069,105.931 300.138,105.931 
		300.138,0 0,0 0,512 406.069,512 406.069,406.069 	"/>
	<g>
		<path style="fill:#FFFFFF;" d="M441.379,379.586c-24.338,0-44.138-19.8-44.138-44.138c0-4.873,3.955-8.828,8.828-8.828
			s8.828,3.955,8.828,8.828c0,14.601,11.882,26.483,26.483,26.483s26.483-11.882,26.483-26.483s-11.882-26.483-26.483-26.483
			c-24.338,0-44.138-19.8-44.138-44.138c0-24.338,19.8-44.138,44.138-44.138s44.138,19.8,44.138,44.138
			c0,4.873-3.955,8.828-8.828,8.828c-4.873,0-8.828-3.955-8.828-8.828c0-14.601-11.882-26.483-26.483-26.483
			s-26.483,11.882-26.483,26.483c0,14.601,11.882,26.483,26.483,26.483c24.338,0,44.138,19.8,44.138,44.138
			S465.717,379.586,441.379,379.586"/>
		<path style="fill:#FFFFFF;" d="M370.759,238.345H264.828c-4.873,0-8.828-3.955-8.828-8.828s3.955-8.828,8.828-8.828h105.931
			c4.873,0,8.828,3.955,8.828,8.828S375.631,238.345,370.759,238.345"/>
		<path style="fill:#FFFFFF;" d="M317.793,379.586c-4.873,0-8.828-3.955-8.828-8.828V229.517c0-4.873,3.955-8.828,8.828-8.828
			c4.873,0,8.828,3.955,8.828,8.828v141.241C326.621,375.631,322.666,379.586,317.793,379.586"/>
	</g>
</g>
<g>
</g>
<g>
</g>
<g>
</g>
<g>
</g>
<g>
</g>
<g>
</g>
<g>
</g>
<g>
</g>
<g>
</g>
<g>
</g>
<g>
</g>
<g>
</g>
<g>
</g>
<g>
</g>
<g>
</g>
</svg>
